<svg width="82" height="10" viewBox="0 0 82 10" fill="none" xmlns="http://www.w3.org/2000/svg">
<path d="M6.59766 5.49023L8.92383 6.19336C8.76758 6.8457 8.52148 7.39062 8.18555 7.82812C7.84961 8.26562 7.43164 8.5957 6.93164 8.81836C6.43555 9.04102 5.80273 9.15234 5.0332 9.15234C4.09961 9.15234 3.33594 9.01758 2.74219 8.74805C2.15234 8.47461 1.64258 7.99609 1.21289 7.3125C0.783203 6.62891 0.568359 5.75391 0.568359 4.6875C0.568359 3.26562 0.945312 2.17383 1.69922 1.41211C2.45703 0.646484 3.52734 0.263672 4.91016 0.263672C5.99219 0.263672 6.8418 0.482422 7.45898 0.919922C8.08008 1.35742 8.54102 2.0293 8.8418 2.93555L6.49805 3.45703C6.41602 3.19531 6.33008 3.00391 6.24023 2.88281C6.0918 2.67969 5.91016 2.52344 5.69531 2.41406C5.48047 2.30469 5.24023 2.25 4.97461 2.25C4.37305 2.25 3.91211 2.49219 3.5918 2.97656C3.34961 3.33594 3.22852 3.90039 3.22852 4.66992C3.22852 5.62305 3.37305 6.27734 3.66211 6.63281C3.95117 6.98438 4.35742 7.16016 4.88086 7.16016C5.38867 7.16016 5.77148 7.01758 6.0293 6.73242C6.29102 6.44727 6.48047 6.0332 6.59766 5.49023ZM10.2305 0.410156H12.8848V3.41602H15.7852V0.410156H18.4512V9H15.7852V5.52539H12.8848V9H10.2305V0.410156ZM20.209 0.410156H27.3223V2.24414H22.8691V3.60938H27V5.36133H22.8691V7.05469H27.4512V9H20.209V0.410156ZM34.6055 5.49023L36.9316 6.19336C36.7754 6.8457 36.5293 7.39062 36.1934 7.82812C35.8574 8.26562 35.4395 8.5957 34.9395 8.81836C34.4434 9.04102 33.8105 9.15234 33.041 9.15234C32.1074 9.15234 31.3438 9.01758 30.75 8.74805C30.1602 8.47461 29.6504 7.99609 29.2207 7.3125C28.791 6.62891 28.5762 5.75391 28.5762 4.6875C28.5762 3.26562 28.9531 2.17383 29.707 1.41211C30.4648 0.646484 31.5352 0.263672 32.918 0.263672C34 0.263672 34.8496 0.482422 35.4668 0.919922C36.0879 1.35742 36.5488 2.0293 36.8496 2.93555L34.5059 3.45703C34.4238 3.19531 34.3379 3.00391 34.248 2.88281C34.0996 2.67969 33.918 2.52344 33.7031 2.41406C33.4883 2.30469 33.248 2.25 32.9824 2.25C32.3809 2.25 31.9199 2.49219 31.5996 2.97656C31.3574 3.33594 31.2363 3.90039 31.2363 4.66992C31.2363 5.62305 31.3809 6.27734 31.6699 6.63281C31.959 6.98438 32.3652 7.16016 32.8887 7.16016C33.3965 7.16016 33.7793 7.01758 34.0371 6.73242C34.2988 6.44727 34.4883 6.0332 34.6055 5.49023ZM38.2383 0.410156H40.8926V3.65625L43.6758 0.410156H47.2031L44.0742 3.65039L47.3438 9H44.0742L42.2637 5.4668L40.8926 6.90234V9H38.2383V0.410156ZM52.2305 0.410156H54.8848V6.88477H59.0273V9H52.2305V0.410156ZM60.3398 0.410156H63V9H60.3398V0.410156ZM64.4473 6.1582L66.9727 6C67.0273 6.41016 67.1387 6.72266 67.3066 6.9375C67.5801 7.28516 67.9707 7.45898 68.4785 7.45898C68.8574 7.45898 69.1484 7.37109 69.3516 7.19531C69.5586 7.01562 69.6621 6.80859 69.6621 6.57422C69.6621 6.35156 69.5645 6.15234 69.3691 5.97656C69.1738 5.80078 68.7207 5.63477 68.0098 5.47852C66.8457 5.2168 66.0156 4.86914 65.5195 4.43555C65.0195 4.00195 64.7695 3.44922 64.7695 2.77734C64.7695 2.33594 64.8965 1.91992 65.1504 1.5293C65.4082 1.13477 65.793 0.826172 66.3047 0.603516C66.8203 0.376953 67.5254 0.263672 68.4199 0.263672C69.5176 0.263672 70.3535 0.46875 70.9277 0.878906C71.5059 1.28516 71.8496 1.93359 71.959 2.82422L69.457 2.9707C69.3906 2.58398 69.25 2.30273 69.0352 2.12695C68.8242 1.95117 68.5312 1.86328 68.1562 1.86328C67.8477 1.86328 67.6152 1.92969 67.459 2.0625C67.3027 2.19141 67.2246 2.34961 67.2246 2.53711C67.2246 2.67383 67.2891 2.79688 67.418 2.90625C67.543 3.01953 67.8398 3.125 68.3086 3.22266C69.4688 3.47266 70.2988 3.72656 70.7988 3.98438C71.3027 4.23828 71.668 4.55469 71.8945 4.93359C72.125 5.3125 72.2402 5.73633 72.2402 6.20508C72.2402 6.75586 72.0879 7.26367 71.7832 7.72852C71.4785 8.19336 71.0527 8.54688 70.5059 8.78906C69.959 9.02734 69.2695 9.14648 68.4375 9.14648C66.9766 9.14648 65.9648 8.86523 65.4023 8.30273C64.8398 7.74023 64.5215 7.02539 64.4473 6.1582ZM72.9785 0.410156H81.0469V2.53125H78.3398V9H75.6855V2.53125H72.9785V0.410156Z" fill="black"/>
</svg>
