<svg width="300" height="300" viewBox="0 0 300 300" fill="none" xmlns="http://www.w3.org/2000/svg">
<path d="M97.0299 206.393C97.2631 208.034 98.7819 209.174 100.422 208.941L127.154 205.141C128.794 204.908 129.935 203.389 129.701 201.749C129.468 200.109 127.949 198.968 126.309 199.201L102.548 202.579L99.1702 178.818C98.937 177.177 97.4182 176.037 95.7778 176.27C94.1375 176.503 92.9967 178.022 93.2299 179.662L97.0299 206.393ZM139.64 148.198L97.6013 204.169L102.399 207.773L144.437 151.802L139.64 148.198Z" fill="black"/>
<path d="M102.678 99.6902L106.911 103.516C105.968 104.294 104.954 104.829 103.869 105.121C102.789 105.404 101.657 105.416 100.473 105.157C99.2974 104.903 98.0149 104.278 96.6257 103.283C95.284 102.322 94.2529 101.397 93.5321 100.508C92.825 99.6171 92.349 98.6634 92.1041 97.647C91.8649 96.6227 91.8329 95.6026 92.008 94.5868C92.1832 93.571 92.7172 92.44 93.6101 91.1936C94.5429 89.8917 95.5415 88.9674 96.606 88.4206C97.3865 88.0187 98.2377 87.7696 99.1596 87.6733C100.087 87.569 100.937 87.6071 101.709 87.7876C102.932 88.0754 104.282 88.7482 105.759 89.8061C107.823 91.2849 109.13 92.7801 109.681 94.2919C110.239 95.8094 110.228 97.435 109.646 99.1688L104.651 96.5087C104.894 95.8665 104.923 95.2739 104.735 94.731C104.561 94.1858 104.156 93.6858 103.521 93.2308C102.719 92.6563 101.861 92.4797 100.946 92.7009C100.044 92.9199 99.175 93.6128 98.3389 94.7798C97.5939 95.8197 97.2741 96.7859 97.3795 97.6784C97.4849 98.5708 97.9187 99.29 98.6808 99.836C99.3159 100.291 99.9644 100.509 100.626 100.491C101.296 100.478 101.98 100.211 102.678 99.6902ZM118.646 92.1915L123.504 95.6722L110.997 113.129L106.139 109.648L118.646 92.1915ZM126.779 98.0183L131.625 101.491L129.262 104.789L124.416 101.317L126.779 98.0183ZM123.332 102.829L128.179 106.301L119.118 118.947L114.272 115.475L123.332 102.829ZM135.186 122.98L139.419 126.806C138.476 127.585 137.463 128.119 136.377 128.411C135.297 128.694 134.165 128.706 132.981 128.447C131.806 128.193 130.523 127.569 129.134 126.573C127.792 125.612 126.761 124.687 126.04 123.798C125.333 122.907 124.857 121.954 124.612 120.937C124.373 119.913 124.341 118.893 124.516 117.877C124.691 116.861 125.225 115.73 126.118 114.484C127.051 113.182 128.05 112.258 129.114 111.711C129.895 111.309 130.746 111.06 131.668 110.964C132.595 110.859 133.445 110.897 134.217 111.078C135.44 111.366 136.79 112.039 138.267 113.096C140.331 114.575 141.638 116.07 142.189 117.582C142.747 119.1 142.736 120.725 142.155 122.459L137.159 119.799C137.403 119.157 137.431 118.564 137.243 118.021C137.069 117.476 136.664 116.976 136.029 116.521C135.228 115.947 134.369 115.77 133.454 115.991C132.552 116.21 131.683 116.903 130.847 118.07C130.102 119.11 129.782 120.076 129.888 120.969C129.993 121.861 130.427 122.58 131.189 123.126C131.824 123.581 132.473 123.8 133.134 123.781C133.804 123.769 134.488 123.502 135.186 122.98ZM150.987 115.362L155.941 118.911L149.491 127.914L156.114 126.316L162.08 130.59L154.369 131.769L153.282 143.423L147.816 139.508L148.89 132.601L145.789 133.082L143.434 136.368L138.48 132.819L150.987 115.362ZM171.987 137.688L176.512 140.93L175.19 142.775C176.392 142.472 177.44 142.393 178.332 142.54C179.232 142.692 180.15 143.104 181.087 143.775C182.095 144.497 182.765 145.247 183.097 146.025C183.428 146.803 183.527 147.679 183.394 148.653C184.748 148.374 185.843 148.312 186.681 148.467C187.524 148.615 188.406 149.019 189.327 149.678C190.685 150.651 191.454 151.815 191.636 153.171C191.824 154.519 191.304 156.05 190.075 157.764L184.385 165.707L179.526 162.226L184.688 155.022C185.097 154.45 185.29 153.946 185.267 153.509C185.255 152.839 185.006 152.331 184.522 151.984C183.95 151.574 183.342 151.451 182.697 151.613C182.052 151.776 181.402 152.314 180.748 153.227L176.073 159.752L171.215 156.271L176.206 149.305C176.604 148.75 176.842 148.35 176.921 148.106C177.045 147.714 177.048 147.332 176.931 146.96C176.819 146.579 176.592 146.267 176.251 146.022C175.695 145.624 175.088 145.508 174.43 145.672C173.771 145.837 173.097 146.4 172.409 147.36L167.785 153.814L162.927 150.334L171.987 137.688ZM204.986 172.718L195.269 165.757C194.799 166.597 194.594 167.327 194.655 167.947C194.731 168.831 195.146 169.542 195.9 170.083C196.376 170.424 196.914 170.629 197.513 170.698C197.883 170.735 198.356 170.671 198.93 170.506L203.39 174.368C201.75 175.114 200.214 175.396 198.784 175.212C197.36 175.021 195.683 174.234 193.754 172.852C192.079 171.652 190.929 170.474 190.304 169.317C189.685 168.152 189.424 166.831 189.523 165.352C189.635 163.87 190.189 162.435 191.184 161.046C192.6 159.069 194.377 157.922 196.516 157.603C198.662 157.291 200.85 157.934 203.081 159.532C204.891 160.829 206.123 162.126 206.779 163.425C207.434 164.723 207.663 166.089 207.466 167.521C207.269 168.953 206.573 170.503 205.379 172.17L204.986 172.718ZM201.72 166.864C202.296 165.859 202.522 165.006 202.4 164.306C202.285 163.611 201.894 163.024 201.227 162.547C200.457 161.995 199.623 161.86 198.724 162.141C198.158 162.312 197.565 162.746 196.945 163.443L201.72 166.864ZM216.063 161.985L221.243 165.697L218.394 169.674L211.669 176.947L208.466 174.652L213.214 165.963L216.063 161.985ZM206.798 175.295L211.632 178.759L208.569 183.034L203.735 179.57L206.798 175.295Z" fill="black"/>
</svg>
