<svg width="600" height="600" viewBox="0 0 600 600" fill="none" xmlns="http://www.w3.org/2000/svg">
<rect x="12.5" y="258.5" width="578" height="89" fill="#2666AE" stroke="black" stroke-width="3"/>
<g filter="url(#filter0_d_31_22)">
<path d="M99.2959 331.652V292.998H109.342V297.138C110.73 295.397 112.005 294.22 113.165 293.604C114.729 292.778 116.461 292.365 118.359 292.365C122.104 292.365 124.995 293.798 127.034 296.663C129.091 299.528 130.119 303.07 130.119 307.289C130.119 311.947 129.003 315.507 126.771 317.968C124.538 320.411 121.717 321.633 118.307 321.633C116.654 321.633 115.143 321.352 113.771 320.789C112.418 320.227 111.205 319.392 110.133 318.284V331.652H99.2959ZM110.054 307.078C110.054 309.293 110.52 310.937 111.451 312.009C112.383 313.081 113.561 313.617 114.984 313.617C116.232 313.617 117.278 313.107 118.122 312.088C118.966 311.051 119.388 309.302 119.388 306.841C119.388 304.573 118.948 302.912 118.069 301.857C117.19 300.785 116.118 300.249 114.853 300.249C113.481 300.249 112.339 300.785 111.425 301.857C110.511 302.93 110.054 304.67 110.054 307.078ZM135.63 282.346H146.388V321H135.63V282.346ZM152.03 292.998H178.002V299.273L163.869 313.67H178.872V321H150.976V314.039L164.37 300.328H152.03V292.998ZM399.855 282.346H410.587V289.649H399.855V282.346ZM399.855 292.998H410.587V321H399.855V292.998ZM430.389 282.346V292.998H436.295V300.829H430.389V310.77C430.389 311.965 430.503 312.756 430.731 313.143C431.083 313.74 431.698 314.039 432.577 314.039C433.368 314.039 434.476 313.811 435.899 313.354L436.69 320.763C434.036 321.343 431.558 321.633 429.255 321.633C426.583 321.633 424.614 321.29 423.349 320.604C422.083 319.919 421.143 318.882 420.527 317.493C419.93 316.087 419.631 313.819 419.631 310.69V300.829H415.676V292.998H419.631V287.856L430.389 282.346ZM472.523 309.662H451.008C451.201 311.385 451.667 312.668 452.405 313.512C453.442 314.725 454.796 315.331 456.466 315.331C457.521 315.331 458.522 315.067 459.472 314.54C460.052 314.206 460.676 313.617 461.344 312.773L471.917 313.749C470.3 316.562 468.349 318.583 466.063 319.813C463.778 321.026 460.5 321.633 456.229 321.633C452.52 321.633 449.602 321.114 447.475 320.077C445.348 319.022 443.581 317.361 442.175 315.094C440.786 312.809 440.092 310.128 440.092 307.052C440.092 302.675 441.489 299.133 444.284 296.426C447.097 293.719 450.973 292.365 455.912 292.365C459.92 292.365 463.084 292.972 465.404 294.185C467.725 295.397 469.491 297.155 470.704 299.458C471.917 301.761 472.523 304.758 472.523 308.449V309.662ZM461.607 304.521C461.396 302.446 460.834 300.961 459.92 300.064C459.023 299.168 457.837 298.72 456.36 298.72C454.655 298.72 453.293 299.396 452.273 300.75C451.623 301.594 451.21 302.851 451.034 304.521H461.607ZM477.533 292.998H487.553V297.085C488.994 295.38 490.444 294.167 491.903 293.446C493.38 292.726 495.155 292.365 497.229 292.365C499.462 292.365 501.229 292.761 502.529 293.552C503.83 294.343 504.894 295.521 505.72 297.085C507.407 295.257 508.945 294.018 510.334 293.367C511.723 292.699 513.437 292.365 515.476 292.365C518.481 292.365 520.828 293.262 522.516 295.055C524.203 296.83 525.047 299.616 525.047 303.413V321H514.289V305.048C514.289 303.782 514.043 302.842 513.551 302.227C512.83 301.26 511.934 300.776 510.861 300.776C509.596 300.776 508.576 301.233 507.803 302.147C507.029 303.062 506.643 304.529 506.643 306.551V321H495.885V305.575C495.885 304.345 495.814 303.51 495.674 303.07C495.445 302.367 495.05 301.805 494.487 301.383C493.925 300.943 493.266 300.724 492.51 300.724C491.279 300.724 490.269 301.189 489.478 302.121C488.687 303.053 488.291 304.582 488.291 306.709V321H477.533V292.998ZM529.556 313.248L540.208 312.246C540.647 313.512 541.263 314.417 542.054 314.962C542.845 315.507 543.899 315.779 545.218 315.779C546.659 315.779 547.775 315.472 548.566 314.856C549.182 314.399 549.489 313.828 549.489 313.143C549.489 312.369 549.085 311.771 548.276 311.35C547.696 311.051 546.158 310.682 543.662 310.242C539.936 309.592 537.343 308.994 535.884 308.449C534.442 307.887 533.221 306.946 532.219 305.628C531.234 304.31 530.742 302.807 530.742 301.119C530.742 299.273 531.278 297.683 532.351 296.347C533.423 295.011 534.899 294.018 536.78 293.367C538.661 292.699 541.184 292.365 544.348 292.365C547.688 292.365 550.148 292.62 551.73 293.13C553.33 293.64 554.657 294.431 555.712 295.503C556.784 296.575 557.672 298.025 558.375 299.854L548.197 300.855C547.934 299.959 547.494 299.3 546.879 298.878C546.035 298.315 545.016 298.034 543.82 298.034C542.607 298.034 541.72 298.254 541.157 298.693C540.612 299.115 540.34 299.634 540.34 300.249C540.34 300.935 540.691 301.453 541.395 301.805C542.098 302.156 543.627 302.473 545.982 302.754C549.551 303.158 552.205 303.721 553.945 304.441C555.686 305.162 557.013 306.19 557.927 307.526C558.858 308.862 559.324 310.33 559.324 311.93C559.324 313.547 558.832 315.12 557.848 316.649C556.881 318.179 555.343 319.4 553.233 320.314C551.142 321.211 548.285 321.659 544.664 321.659C539.549 321.659 535.901 320.93 533.722 319.471C531.56 318.012 530.171 315.938 529.556 313.248ZM564.492 282.346H575.962V291.152L573.747 308.845H566.654L564.492 291.152V282.346ZM564.888 311.534H575.593V321H564.888V311.534Z" fill="#F3E858"/>
<path d="M222.22 310.058L232.424 311.218C231.861 313.345 230.938 315.19 229.655 316.755C228.372 318.302 226.729 319.506 224.725 320.367C222.738 321.229 220.207 321.659 217.131 321.659C214.16 321.659 211.682 321.387 209.695 320.842C207.727 320.279 206.03 319.383 204.606 318.152C203.183 316.904 202.066 315.445 201.258 313.775C200.449 312.105 200.045 309.891 200.045 307.131C200.045 304.248 200.537 301.849 201.521 299.933C202.242 298.526 203.227 297.27 204.475 296.162C205.723 295.037 207.006 294.202 208.324 293.657C210.416 292.796 213.097 292.365 216.366 292.365C220.937 292.365 224.417 293.183 226.808 294.817C229.216 296.452 230.903 298.843 231.87 301.989L221.771 303.334C221.455 302.139 220.875 301.242 220.031 300.645C219.205 300.029 218.089 299.722 216.683 299.722C214.907 299.722 213.466 300.363 212.358 301.646C211.269 302.912 210.724 304.837 210.724 307.421C210.724 309.724 211.269 311.473 212.358 312.668C213.448 313.863 214.837 314.461 216.524 314.461C217.931 314.461 219.108 314.101 220.058 313.38C221.024 312.659 221.745 311.552 222.22 310.058ZM237.354 282.346H248.086V296.584C249.545 295.072 250.995 293.991 252.437 293.341C253.878 292.69 255.583 292.365 257.552 292.365C260.47 292.365 262.764 293.253 264.434 295.028C266.121 296.804 266.965 299.528 266.965 303.202V321H256.181V305.602C256.181 303.844 255.855 302.604 255.205 301.884C254.555 301.146 253.641 300.776 252.463 300.776C251.162 300.776 250.107 301.269 249.299 302.253C248.49 303.237 248.086 305.004 248.086 307.553V321H237.354V282.346ZM304.459 309.662H282.943C283.137 311.385 283.603 312.668 284.341 313.512C285.378 314.725 286.731 315.331 288.401 315.331C289.456 315.331 290.458 315.067 291.407 314.54C291.987 314.206 292.611 313.617 293.279 312.773L303.853 313.749C302.235 316.562 300.284 318.583 297.999 319.813C295.714 321.026 292.436 321.633 288.164 321.633C284.455 321.633 281.537 321.114 279.41 320.077C277.283 319.022 275.517 317.361 274.11 315.094C272.722 312.809 272.027 310.128 272.027 307.052C272.027 302.675 273.425 299.133 276.22 296.426C279.032 293.719 282.908 292.365 287.848 292.365C291.855 292.365 295.02 292.972 297.34 294.185C299.66 295.397 301.427 297.155 302.64 299.458C303.853 301.761 304.459 304.758 304.459 308.449V309.662ZM293.543 304.521C293.332 302.446 292.77 300.961 291.855 300.064C290.959 299.168 289.772 298.72 288.296 298.72C286.591 298.72 285.229 299.396 284.209 300.75C283.559 301.594 283.146 302.851 282.97 304.521H293.543ZM330.272 310.058L340.477 311.218C339.914 313.345 338.991 315.19 337.708 316.755C336.425 318.302 334.781 319.506 332.777 320.367C330.791 321.229 328.26 321.659 325.184 321.659C322.213 321.659 319.734 321.387 317.748 320.842C315.779 320.279 314.083 319.383 312.659 318.152C311.235 316.904 310.119 315.445 309.311 313.775C308.502 312.105 308.098 309.891 308.098 307.131C308.098 304.248 308.59 301.849 309.574 299.933C310.295 298.526 311.279 297.27 312.527 296.162C313.775 295.037 315.059 294.202 316.377 293.657C318.469 292.796 321.149 292.365 324.419 292.365C328.989 292.365 332.47 293.183 334.86 294.817C337.269 296.452 338.956 298.843 339.923 301.989L329.824 303.334C329.508 302.139 328.928 301.242 328.084 300.645C327.258 300.029 326.142 299.722 324.735 299.722C322.96 299.722 321.519 300.363 320.411 301.646C319.321 302.912 318.776 304.837 318.776 307.421C318.776 309.724 319.321 311.473 320.411 312.668C321.501 313.863 322.89 314.461 324.577 314.461C325.983 314.461 327.161 314.101 328.11 313.38C329.077 312.659 329.798 311.552 330.272 310.058ZM345.407 282.346H356.376V302.279L364.392 292.998H377.602L367.556 302.807L378.182 321H366.079L360.41 309.768L356.376 313.723V321H345.407V282.346Z" fill="#F3A251"/>
<path d="M99.2959 331.652H97.2959V333.652H99.2959V331.652ZM99.2959 292.998V290.998H97.2959V292.998H99.2959ZM109.342 292.998H111.342V290.998H109.342V292.998ZM109.342 297.138H107.342V302.851L110.905 298.385L109.342 297.138ZM113.165 293.604L112.231 291.836L112.228 291.838L113.165 293.604ZM127.034 296.663L125.405 297.823L125.409 297.829L127.034 296.663ZM126.771 317.968L128.247 319.317L128.252 319.312L126.771 317.968ZM113.771 320.789L113.004 322.636L113.012 322.639L113.771 320.789ZM110.133 318.284L111.57 316.893L108.133 313.343V318.284H110.133ZM110.133 331.652V333.652H112.133V331.652H110.133ZM111.451 312.009L112.961 310.697L111.451 312.009ZM118.122 312.088L119.663 313.363L119.668 313.357L119.673 313.35L118.122 312.088ZM118.069 301.857L116.523 303.125L116.528 303.132L116.533 303.138L118.069 301.857ZM111.425 301.857L109.903 300.56L111.425 301.857ZM101.296 331.652V292.998H97.2959V331.652H101.296ZM99.2959 294.998H109.342V290.998H99.2959V294.998ZM107.342 292.998V297.138H111.342V292.998H107.342ZM110.905 298.385C112.225 296.731 113.296 295.799 114.102 295.371L112.228 291.838C110.714 292.641 109.236 294.064 107.779 295.89L110.905 298.385ZM114.099 295.373C115.355 294.71 116.762 294.365 118.359 294.365V290.365C116.16 290.365 114.104 290.847 112.231 291.836L114.099 295.373ZM118.359 294.365C121.506 294.365 123.769 295.524 125.405 297.823L128.664 295.503C126.222 292.072 122.701 290.365 118.359 290.365V294.365ZM125.409 297.829C127.177 300.292 128.119 303.405 128.119 307.289H132.119C132.119 302.736 131.004 298.764 128.659 295.497L125.409 297.829ZM128.119 307.289C128.119 311.65 127.074 314.656 125.289 316.624L128.252 319.312C130.931 316.358 132.119 312.244 132.119 307.289H128.119ZM125.294 316.619C123.453 318.633 121.174 319.633 118.307 319.633V323.633C122.259 323.633 125.623 322.189 128.247 319.317L125.294 316.619ZM118.307 319.633C116.885 319.633 115.635 319.392 114.531 318.939L113.012 322.639C114.651 323.311 116.424 323.633 118.307 323.633V319.633ZM114.539 318.942C113.45 318.49 112.462 317.815 111.57 316.893L108.696 319.675C109.948 320.968 111.386 321.963 113.004 322.636L114.539 318.942ZM108.133 318.284V331.652H112.133V318.284H108.133ZM110.133 329.652H99.2959V333.652H110.133V329.652ZM108.054 307.078C108.054 309.518 108.558 311.729 109.941 313.321L112.961 310.697C112.481 310.145 112.054 309.068 112.054 307.078H108.054ZM109.941 313.321C111.254 314.831 112.983 315.617 114.984 315.617V311.617C114.138 311.617 113.512 311.331 112.961 310.697L109.941 313.321ZM114.984 315.617C116.868 315.617 118.465 314.81 119.663 313.363L116.581 310.813C116.091 311.405 115.596 311.617 114.984 311.617V315.617ZM119.673 313.35C120.967 311.761 121.388 309.422 121.388 306.841H117.388C117.388 309.182 116.965 310.341 116.571 310.826L119.673 313.35ZM121.388 306.841C121.388 304.388 120.925 302.161 119.606 300.577L116.533 303.138C116.971 303.664 117.388 304.759 117.388 306.841H121.388ZM119.616 300.59C118.399 299.104 116.78 298.249 114.853 298.249V302.249C115.457 302.249 115.982 302.466 116.523 303.125L119.616 300.59ZM114.853 298.249C112.877 298.249 111.185 299.056 109.903 300.56L112.947 303.155C113.493 302.514 114.086 302.249 114.853 302.249V298.249ZM109.903 300.56C108.526 302.175 108.054 304.503 108.054 307.078H112.054C112.054 304.837 112.495 303.685 112.947 303.155L109.903 300.56ZM135.63 282.346V280.346H133.63V282.346H135.63ZM146.388 282.346H148.388V280.346H146.388V282.346ZM146.388 321V323H148.388V321H146.388ZM135.63 321H133.63V323H135.63V321ZM135.63 284.346H146.388V280.346H135.63V284.346ZM144.388 282.346V321H148.388V282.346H144.388ZM146.388 319H135.63V323H146.388V319ZM137.63 321V282.346H133.63V321H137.63ZM152.03 292.998V290.998H150.03V292.998H152.03ZM178.002 292.998H180.002V290.998H178.002V292.998ZM178.002 299.273L179.429 300.675L180.002 300.091V299.273H178.002ZM163.869 313.67L162.442 312.269L159.103 315.67H163.869V313.67ZM178.872 313.67H180.872V311.67H178.872V313.67ZM178.872 321V323H180.872V321H178.872ZM150.976 321H148.976V323H150.976V321ZM150.976 314.039L149.545 312.641L148.976 313.224V314.039H150.976ZM164.37 300.328L165.801 301.726L169.12 298.328H164.37V300.328ZM152.03 300.328H150.03V302.328H152.03V300.328ZM152.03 294.998H178.002V290.998H152.03V294.998ZM176.002 292.998V299.273H180.002V292.998H176.002ZM176.575 297.872L162.442 312.269L165.296 315.071L179.429 300.675L176.575 297.872ZM163.869 315.67H178.872V311.67H163.869V315.67ZM176.872 313.67V321H180.872V313.67H176.872ZM178.872 319H150.976V323H178.872V319ZM152.976 321V314.039H148.976V321H152.976ZM152.406 315.437L165.801 301.726L162.939 298.931L149.545 312.641L152.406 315.437ZM164.37 298.328H152.03V302.328H164.37V298.328ZM154.03 300.328V292.998H150.03V300.328H154.03ZM222.22 310.058L222.446 308.07L220.811 307.885L220.314 309.452L222.22 310.058ZM232.424 311.218L234.357 311.729L234.949 309.492L232.65 309.231L232.424 311.218ZM229.655 316.755L231.195 318.032L231.202 318.023L229.655 316.755ZM224.725 320.367L223.935 318.53L223.929 318.532L224.725 320.367ZM209.695 320.842L209.146 322.765L209.156 322.768L209.166 322.771L209.695 320.842ZM204.606 318.152L203.288 319.656L203.299 319.666L204.606 318.152ZM201.521 299.933L203.3 300.847L203.301 300.845L201.521 299.933ZM204.475 296.162L205.802 297.658L205.808 297.653L205.814 297.648L204.475 296.162ZM208.324 293.657L207.563 291.808L207.56 291.809L208.324 293.657ZM226.808 294.817L225.679 296.468L225.684 296.472L226.808 294.817ZM231.87 301.989L232.134 303.972L234.476 303.66L233.782 301.402L231.87 301.989ZM221.771 303.334L219.838 303.846L220.289 305.549L222.035 305.316L221.771 303.334ZM220.031 300.645L218.837 302.249L218.856 302.263L218.875 302.277L220.031 300.645ZM212.358 301.646L210.844 300.34L210.843 300.341L212.358 301.646ZM220.058 313.38L218.862 311.776L218.855 311.782L218.848 311.787L220.058 313.38ZM221.994 312.045L232.198 313.205L232.65 309.231L222.446 308.07L221.994 312.045ZM230.49 310.706C229.995 312.581 229.195 314.163 228.109 315.487L231.202 318.023C232.682 316.218 233.728 314.109 234.357 311.729L230.49 310.706ZM228.116 315.478C227.052 316.761 225.673 317.782 223.935 318.53L225.514 322.205C227.784 321.229 229.693 319.843 231.195 318.032L228.116 315.478ZM223.929 318.532C222.276 319.249 220.04 319.659 217.131 319.659V323.659C220.374 323.659 223.201 323.208 225.52 322.202L223.929 318.532ZM217.131 319.659C214.267 319.659 211.981 319.395 210.224 318.913L209.166 322.771C211.382 323.379 214.053 323.659 217.131 323.659V319.659ZM210.245 318.919C208.531 318.429 207.099 317.663 205.914 316.639L203.299 319.666C204.961 321.102 206.923 322.13 209.146 322.765L210.245 318.919ZM205.925 316.648C204.698 315.573 203.747 314.328 203.058 312.904L199.458 314.647C200.385 316.563 201.667 318.236 203.288 319.656L205.925 316.648ZM203.058 312.904C202.429 311.605 202.045 309.724 202.045 307.131H198.045C198.045 310.058 198.469 312.606 199.458 314.647L203.058 312.904ZM202.045 307.131C202.045 304.463 202.502 302.401 203.3 300.847L199.743 299.019C198.572 301.297 198.045 304.033 198.045 307.131H202.045ZM203.301 300.845C203.903 299.672 204.729 298.61 205.802 297.658L203.147 294.666C201.724 295.929 200.582 297.381 199.742 299.02L203.301 300.845ZM205.814 297.648C206.922 296.649 208.015 295.949 209.088 295.506L207.56 291.809C205.997 292.455 204.524 293.425 203.136 294.677L205.814 297.648ZM209.086 295.507C210.854 294.779 213.251 294.365 216.366 294.365V290.365C212.942 290.365 209.978 290.813 207.563 291.808L209.086 295.507ZM216.366 294.365C220.748 294.365 223.762 295.158 225.679 296.468L227.937 293.166C225.072 291.208 221.125 290.365 216.366 290.365V294.365ZM225.684 296.472C227.667 297.818 229.107 299.805 229.958 302.577L233.782 301.402C232.7 297.88 230.765 295.086 227.931 293.163L225.684 296.472ZM231.606 300.007L221.507 301.351L222.035 305.316L232.134 303.972L231.606 300.007ZM223.705 302.822C223.293 301.267 222.485 299.932 221.187 299.012L218.875 302.277C219.265 302.553 219.617 303.011 219.838 303.846L223.705 302.822ZM221.226 299.04C219.948 298.089 218.365 297.722 216.683 297.722V301.722C217.813 301.722 218.462 301.97 218.837 302.249L221.226 299.04ZM216.683 297.722C214.357 297.722 212.352 298.593 210.844 300.34L213.873 302.953C214.58 302.133 215.457 301.722 216.683 301.722V297.722ZM210.843 300.341C209.309 302.123 208.724 304.608 208.724 307.421H212.724C212.724 305.066 213.228 303.701 213.874 302.952L210.843 300.341ZM208.724 307.421C208.724 310.012 209.336 312.321 210.88 314.015L213.836 311.32C213.201 310.624 212.724 309.435 212.724 307.421H208.724ZM210.88 314.015C212.367 315.646 214.302 316.461 216.524 316.461V312.461C215.372 312.461 214.529 312.08 213.836 311.32L210.88 314.015ZM216.524 316.461C218.286 316.461 219.91 316.003 221.267 314.973L218.848 311.787C218.307 312.198 217.575 312.461 216.524 312.461V316.461ZM221.253 314.983C222.643 313.947 223.562 312.437 224.126 310.663L220.314 309.452C219.928 310.667 219.406 311.371 218.862 311.776L221.253 314.983ZM237.354 282.346V280.346H235.354V282.346H237.354ZM248.086 282.346H250.086V280.346H248.086V282.346ZM248.086 296.584H246.086V301.536L249.525 297.973L248.086 296.584ZM264.434 295.028L262.977 296.399L262.984 296.406L264.434 295.028ZM266.965 321V323H268.965V321H266.965ZM256.181 321H254.181V323H256.181V321ZM255.205 301.884L253.704 303.206L253.712 303.215L253.72 303.224L255.205 301.884ZM248.086 321V323H250.086V321H248.086ZM237.354 321H235.354V323H237.354V321ZM237.354 284.346H248.086V280.346H237.354V284.346ZM246.086 282.346V296.584H250.086V282.346H246.086ZM249.525 297.973C250.863 296.587 252.111 295.682 253.259 295.164L251.614 291.518C249.879 292.301 248.227 293.558 246.647 295.195L249.525 297.973ZM253.259 295.164C254.387 294.655 255.799 294.365 257.552 294.365V290.365C255.367 290.365 253.369 290.726 251.614 291.518L253.259 295.164ZM257.552 294.365C260.036 294.365 261.759 295.103 262.977 296.399L265.89 293.658C263.769 291.402 260.904 290.365 257.552 290.365V294.365ZM262.984 296.406C264.176 297.661 264.965 299.79 264.965 303.202H268.965C268.965 299.267 268.066 295.947 265.883 293.65L262.984 296.406ZM264.965 303.202V321H268.965V303.202H264.965ZM266.965 319H256.181V323H266.965V319ZM258.181 321V305.602H254.181V321H258.181ZM258.181 305.602C258.181 303.709 257.853 301.832 256.69 300.544L253.72 303.224C253.858 303.377 254.181 303.979 254.181 305.602H258.181ZM256.706 300.562C255.601 299.308 254.091 298.776 252.463 298.776V302.776C253.19 302.776 253.508 302.983 253.704 303.206L256.706 300.562ZM252.463 298.776C250.578 298.776 248.951 299.525 247.753 300.983L250.844 303.522C251.264 303.012 251.746 302.776 252.463 302.776V298.776ZM247.753 300.983C246.473 302.542 246.086 304.933 246.086 307.553H250.086C250.086 305.075 250.507 303.933 250.844 303.522L247.753 300.983ZM246.086 307.553V321H250.086V307.553H246.086ZM248.086 319H237.354V323H248.086V319ZM239.354 321V282.346H235.354V321H239.354ZM304.459 309.662V311.662H306.459V309.662H304.459ZM282.943 309.662V307.662H280.706L280.956 309.885L282.943 309.662ZM284.341 313.512L285.861 312.212L285.853 312.203L285.846 312.195L284.341 313.512ZM291.407 314.54L292.379 316.288L292.392 316.281L292.405 316.273L291.407 314.54ZM293.279 312.773L293.463 310.782L292.384 310.682L291.711 311.532L293.279 312.773ZM303.853 313.749L305.586 314.746L307.14 312.044L304.036 311.757L303.853 313.749ZM297.999 319.813L298.937 321.58L298.947 321.574L297.999 319.813ZM279.41 320.077L278.522 321.869L278.534 321.875L279.41 320.077ZM274.11 315.094L272.401 316.132L272.406 316.14L272.411 316.148L274.11 315.094ZM276.22 296.426L274.833 294.985L274.828 294.989L276.22 296.426ZM293.543 304.521V306.521H295.757L295.533 304.318L293.543 304.521ZM291.855 300.064L290.441 301.479L290.448 301.486L290.455 301.492L291.855 300.064ZM284.209 300.75L285.793 301.971L285.8 301.962L285.806 301.953L284.209 300.75ZM282.97 304.521L280.981 304.311L280.748 306.521H282.97V304.521ZM304.459 307.662H282.943V311.662H304.459V307.662ZM280.956 309.885C281.172 311.807 281.719 313.552 282.836 314.829L285.846 312.195C285.486 311.784 285.102 310.962 284.931 309.439L280.956 309.885ZM282.821 314.811C284.258 316.492 286.178 317.331 288.401 317.331V313.331C287.285 313.331 286.498 312.957 285.861 312.212L282.821 314.811ZM288.401 317.331C289.806 317.331 291.141 316.976 292.379 316.288L290.436 312.792C289.775 313.159 289.106 313.331 288.401 313.331V317.331ZM292.405 316.273C293.297 315.76 294.106 314.951 294.847 314.015L291.711 311.532C291.116 312.283 290.677 312.653 290.409 312.807L292.405 316.273ZM293.096 314.765L303.669 315.741L304.036 311.757L293.463 310.782L293.096 314.765ZM302.119 312.752C300.641 315.322 298.935 317.038 297.051 318.053L298.947 321.574C301.633 320.128 303.83 317.801 305.586 314.746L302.119 312.752ZM297.061 318.047C295.195 319.038 292.297 319.633 288.164 319.633V323.633C292.574 323.633 296.233 323.015 298.937 321.58L297.061 318.047ZM288.164 319.633C284.604 319.633 282.029 319.129 280.287 318.279L278.534 321.875C281.045 323.099 284.306 323.633 288.164 323.633V319.633ZM280.299 318.285C278.546 317.416 277.045 316.031 275.81 314.04L272.411 316.148C273.988 318.692 276.021 320.629 278.522 321.869L280.299 318.285ZM275.82 314.055C274.648 312.128 274.027 309.818 274.027 307.052H270.027C270.027 310.438 270.795 313.489 272.401 316.132L275.82 314.055ZM274.027 307.052C274.027 303.142 275.255 300.144 277.611 297.862L274.828 294.989C271.594 298.122 270.027 302.207 270.027 307.052H274.027ZM277.607 297.867C279.955 295.607 283.282 294.365 287.848 294.365V290.365C282.535 290.365 278.11 291.831 274.833 294.985L277.607 297.867ZM287.848 294.365C291.689 294.365 294.491 294.952 296.413 295.957L298.266 292.412C295.548 290.991 292.022 290.365 287.848 290.365V294.365ZM296.413 295.957C298.376 296.983 299.848 298.449 300.87 300.39L304.409 298.526C303.006 295.862 300.944 293.812 298.266 292.412L296.413 295.957ZM300.87 300.39C301.882 302.311 302.459 304.955 302.459 308.449H306.459C306.459 304.561 305.823 301.211 304.409 298.526L300.87 300.39ZM302.459 308.449V309.662H306.459V308.449H302.459ZM295.533 304.318C295.302 302.051 294.657 300.011 293.256 298.637L290.455 301.492C290.882 301.911 291.362 302.842 291.553 304.723L295.533 304.318ZM293.27 298.65C291.936 297.317 290.209 296.72 288.296 296.72V300.72C289.336 300.72 289.982 301.019 290.441 301.479L293.27 298.65ZM288.296 296.72C285.967 296.72 284.012 297.688 282.611 299.547L285.806 301.953C286.445 301.105 287.214 300.72 288.296 300.72V296.72ZM282.625 299.529C281.654 300.789 281.175 302.467 280.981 304.311L284.959 304.73C285.116 303.235 285.464 302.398 285.793 301.971L282.625 299.529ZM282.97 306.521H293.543V302.521H282.97V306.521ZM330.272 310.058L330.498 308.07L328.864 307.885L328.366 309.452L330.272 310.058ZM340.477 311.218L342.41 311.729L343.002 309.492L340.702 309.231L340.477 311.218ZM337.708 316.755L339.247 318.032L339.254 318.023L337.708 316.755ZM332.777 320.367L331.988 318.53L331.982 318.532L332.777 320.367ZM317.748 320.842L317.199 322.765L317.209 322.768L317.219 322.771L317.748 320.842ZM312.659 318.152L311.341 319.656L311.351 319.666L312.659 318.152ZM309.574 299.933L311.353 300.847L311.354 300.845L309.574 299.933ZM312.527 296.162L313.855 297.658L313.861 297.653L313.866 297.648L312.527 296.162ZM316.377 293.657L315.615 291.808L315.613 291.809L316.377 293.657ZM334.86 294.817L333.731 296.468L333.737 296.472L334.86 294.817ZM339.923 301.989L340.187 303.972L342.528 303.66L341.835 301.402L339.923 301.989ZM329.824 303.334L327.891 303.846L328.342 305.549L330.088 305.316L329.824 303.334ZM328.084 300.645L326.889 302.249L326.909 302.263L326.928 302.277L328.084 300.645ZM320.411 301.646L318.897 300.34L318.896 300.341L320.411 301.646ZM328.11 313.38L326.915 311.776L326.908 311.782L326.901 311.787L328.11 313.38ZM330.047 312.045L340.251 313.205L340.702 309.231L330.498 308.07L330.047 312.045ZM338.543 310.706C338.047 312.581 337.248 314.163 336.162 315.487L339.254 318.023C340.735 316.218 341.781 314.109 342.41 311.729L338.543 310.706ZM336.169 315.478C335.104 316.761 333.726 317.782 331.988 318.53L333.567 322.205C335.836 321.229 337.745 319.843 339.247 318.032L336.169 315.478ZM331.982 318.532C330.329 319.249 328.093 319.659 325.184 319.659V323.659C328.427 323.659 331.253 323.208 333.573 322.202L331.982 318.532ZM325.184 319.659C322.32 319.659 320.034 319.395 318.277 318.913L317.219 322.771C319.435 323.379 322.106 323.659 325.184 323.659V319.659ZM318.297 318.919C316.583 318.429 315.152 317.663 313.967 316.639L311.351 319.666C313.014 321.102 314.975 322.13 317.199 322.765L318.297 318.919ZM313.978 316.648C312.751 315.573 311.8 314.328 311.111 312.904L307.51 314.647C308.438 316.563 309.72 318.236 311.341 319.656L313.978 316.648ZM311.111 312.904C310.482 311.605 310.098 309.724 310.098 307.131H306.098C306.098 310.058 306.522 312.606 307.51 314.647L311.111 312.904ZM310.098 307.131C310.098 304.463 310.555 302.401 311.353 300.847L307.795 299.019C306.625 301.297 306.098 304.033 306.098 307.131H310.098ZM311.354 300.845C311.955 299.672 312.782 298.61 313.855 297.658L311.2 294.666C309.777 295.929 308.635 297.381 307.794 299.02L311.354 300.845ZM313.866 297.648C314.974 296.649 316.067 295.949 317.141 295.506L315.613 291.809C314.05 292.455 312.576 293.425 311.188 294.677L313.866 297.648ZM317.138 295.507C318.906 294.779 321.304 294.365 324.419 294.365V290.365C320.995 290.365 318.031 290.813 315.615 291.808L317.138 295.507ZM324.419 294.365C328.801 294.365 331.815 295.158 333.731 296.468L335.989 293.166C333.125 291.208 329.177 290.365 324.419 290.365V294.365ZM333.737 296.472C335.72 297.818 337.159 299.805 338.011 302.577L341.835 301.402C340.753 297.88 338.817 295.086 335.984 293.163L333.737 296.472ZM339.659 300.007L329.56 301.351L330.088 305.316L340.187 303.972L339.659 300.007ZM331.758 302.822C331.346 301.267 330.538 299.932 329.24 299.012L326.928 302.277C327.318 302.553 327.67 303.011 327.891 303.846L331.758 302.822ZM329.279 299.04C328.001 298.089 326.417 297.722 324.735 297.722V301.722C325.866 301.722 326.515 301.97 326.889 302.249L329.279 299.04ZM324.735 297.722C322.41 297.722 320.404 298.593 318.897 300.34L321.925 302.953C322.633 302.133 323.51 301.722 324.735 301.722V297.722ZM318.896 300.341C317.361 302.123 316.776 304.608 316.776 307.421H320.776C320.776 305.066 321.281 303.701 321.927 302.952L318.896 300.341ZM316.776 307.421C316.776 310.012 317.389 312.321 318.933 314.015L321.889 311.32C321.254 310.624 320.776 309.435 320.776 307.421H316.776ZM318.933 314.015C320.42 315.646 322.355 316.461 324.577 316.461V312.461C323.425 312.461 322.582 312.08 321.889 311.32L318.933 314.015ZM324.577 316.461C326.339 316.461 327.963 316.003 329.32 314.973L326.901 311.787C326.359 312.198 325.628 312.461 324.577 312.461V316.461ZM329.306 314.983C330.696 313.947 331.615 312.437 332.179 310.663L328.366 309.452C327.981 310.667 327.458 311.371 326.915 311.776L329.306 314.983ZM345.407 282.346V280.346H343.407V282.346H345.407ZM356.376 282.346H358.376V280.346H356.376V282.346ZM356.376 302.279H354.376V307.655L357.89 303.587L356.376 302.279ZM364.392 292.998V290.998H363.476L362.878 291.691L364.392 292.998ZM377.602 292.998L378.999 294.429L382.513 290.998H377.602V292.998ZM367.556 302.807L366.158 301.376L365.041 302.467L365.829 303.815L367.556 302.807ZM378.182 321V323H381.666L379.909 319.991L378.182 321ZM366.079 321L364.294 321.901L364.848 323H366.079V321ZM360.41 309.768L362.196 308.866L360.963 306.425L359.01 308.339L360.41 309.768ZM356.376 313.723L354.976 312.295L354.376 312.883V313.723H356.376ZM356.376 321V323H358.376V321H356.376ZM345.407 321H343.407V323H345.407V321ZM345.407 284.346H356.376V280.346H345.407V284.346ZM354.376 282.346V302.279H358.376V282.346H354.376ZM357.89 303.587L365.905 294.305L362.878 291.691L354.862 300.972L357.89 303.587ZM364.392 294.998H377.602V290.998H364.392V294.998ZM376.204 291.567L366.158 301.376L368.953 304.238L378.999 294.429L376.204 291.567ZM365.829 303.815L376.455 322.009L379.909 319.991L369.283 301.798L365.829 303.815ZM378.182 319H366.079V323H378.182V319ZM367.865 320.099L362.196 308.866L358.625 310.669L364.294 321.901L367.865 320.099ZM359.01 308.339L354.976 312.295L357.776 315.151L361.81 311.196L359.01 308.339ZM354.376 313.723V321H358.376V313.723H354.376ZM356.376 319H345.407V323H356.376V319ZM347.407 321V282.346H343.407V321H347.407ZM399.855 282.346V280.346H397.855V282.346H399.855ZM410.587 282.346H412.587V280.346H410.587V282.346ZM410.587 289.649V291.649H412.587V289.649H410.587ZM399.855 289.649H397.855V291.649H399.855V289.649ZM399.855 292.998V290.998H397.855V292.998H399.855ZM410.587 292.998H412.587V290.998H410.587V292.998ZM410.587 321V323H412.587V321H410.587ZM399.855 321H397.855V323H399.855V321ZM399.855 284.346H410.587V280.346H399.855V284.346ZM408.587 282.346V289.649H412.587V282.346H408.587ZM410.587 287.649H399.855V291.649H410.587V287.649ZM401.855 289.649V282.346H397.855V289.649H401.855ZM399.855 294.998H410.587V290.998H399.855V294.998ZM408.587 292.998V321H412.587V292.998H408.587ZM410.587 319H399.855V323H410.587V319ZM401.855 321V292.998H397.855V321H401.855ZM430.389 282.346H432.389V279.074L429.477 280.566L430.389 282.346ZM430.389 292.998H428.389V294.998H430.389V292.998ZM436.295 292.998H438.295V290.998H436.295V292.998ZM436.295 300.829V302.829H438.295V300.829H436.295ZM430.389 300.829V298.829H428.389V300.829H430.389ZM430.731 313.143L432.455 312.129L432.453 312.125L430.731 313.143ZM435.899 313.354L437.888 313.141L437.627 310.698L435.288 311.449L435.899 313.354ZM436.69 320.763L437.117 322.717L438.87 322.334L438.679 320.55L436.69 320.763ZM420.527 317.493L418.687 318.275L418.693 318.289L418.699 318.303L420.527 317.493ZM419.631 300.829H421.631V298.829H419.631V300.829ZM415.676 300.829H413.676V302.829H415.676V300.829ZM415.676 292.998V290.998H413.676V292.998H415.676ZM419.631 292.998V294.998H421.631V292.998H419.631ZM419.631 287.856L418.719 286.076L417.631 286.634V287.856H419.631ZM428.389 282.346V292.998H432.389V282.346H428.389ZM430.389 294.998H436.295V290.998H430.389V294.998ZM434.295 292.998V300.829H438.295V292.998H434.295ZM436.295 298.829H430.389V302.829H436.295V298.829ZM428.389 300.829V310.77H432.389V300.829H428.389ZM428.389 310.77C428.389 311.421 428.419 312.021 428.495 312.545C428.565 313.029 428.697 313.631 429.01 314.16L432.453 312.125C432.506 312.214 432.514 312.259 432.502 312.218C432.491 312.182 432.473 312.105 432.454 311.973C432.415 311.707 432.389 311.313 432.389 310.77H428.389ZM429.008 314.157C429.817 315.533 431.209 316.039 432.577 316.039V312.039C432.357 312.039 432.299 312.001 432.33 312.016C432.347 312.024 432.375 312.041 432.404 312.068C432.434 312.095 432.45 312.119 432.455 312.129L429.008 314.157ZM432.577 316.039C433.686 316.039 435.032 315.732 436.511 315.258L435.288 311.449C433.919 311.889 433.051 312.039 432.577 312.039V316.039ZM433.911 313.566L434.702 320.975L438.679 320.55L437.888 313.141L433.911 313.566ZM436.263 318.809C433.725 319.364 431.391 319.633 429.255 319.633V323.633C431.724 323.633 434.347 323.322 437.117 322.717L436.263 318.809ZM429.255 319.633C426.676 319.633 425.118 319.289 424.301 318.846L422.396 322.363C424.11 323.291 426.49 323.633 429.255 323.633V319.633ZM424.301 318.846C423.447 318.383 422.803 317.691 422.356 316.683L418.699 318.303C419.483 320.072 420.719 321.455 422.396 322.363L424.301 318.846ZM422.368 316.711C421.937 315.697 421.631 313.773 421.631 310.69H417.631C417.631 313.865 417.922 316.477 418.687 318.275L422.368 316.711ZM421.631 310.69V300.829H417.631V310.69H421.631ZM419.631 298.829H415.676V302.829H419.631V298.829ZM417.676 300.829V292.998H413.676V300.829H417.676ZM415.676 294.998H419.631V290.998H415.676V294.998ZM421.631 292.998V287.856H417.631V292.998H421.631ZM420.543 289.636L431.301 284.126L429.477 280.566L418.719 286.076L420.543 289.636ZM472.523 309.662V311.662H474.523V309.662H472.523ZM451.008 309.662V307.662H448.771L449.02 309.885L451.008 309.662ZM452.405 313.512L453.925 312.212L453.918 312.203L453.91 312.195L452.405 313.512ZM459.472 314.54L460.443 316.288L460.456 316.281L460.47 316.273L459.472 314.54ZM461.344 312.773L461.528 310.782L460.448 310.682L459.776 311.532L461.344 312.773ZM471.917 313.749L473.651 314.746L475.205 312.044L472.101 311.757L471.917 313.749ZM466.063 319.813L467.001 321.58L467.012 321.574L466.063 319.813ZM447.475 320.077L446.586 321.869L446.598 321.875L447.475 320.077ZM442.175 315.094L440.466 316.132L440.47 316.14L440.475 316.148L442.175 315.094ZM444.284 296.426L442.897 294.985L442.893 294.989L444.284 296.426ZM461.607 304.521V306.521H463.821L463.597 304.318L461.607 304.521ZM459.92 300.064L458.506 301.479L458.513 301.486L458.52 301.492L459.92 300.064ZM452.273 300.75L453.857 301.971L453.864 301.962L453.871 301.953L452.273 300.75ZM451.034 304.521L449.045 304.311L448.813 306.521H451.034V304.521ZM472.523 307.662H451.008V311.662H472.523V307.662ZM449.02 309.885C449.236 311.807 449.783 313.552 450.9 314.829L453.91 312.195C453.551 311.784 453.166 310.962 452.995 309.439L449.02 309.885ZM450.885 314.811C452.322 316.492 454.242 317.331 456.466 317.331V313.331C455.35 313.331 454.563 312.957 453.925 312.212L450.885 314.811ZM456.466 317.331C457.871 317.331 459.206 316.976 460.443 316.288L458.5 312.792C457.839 313.159 457.17 313.331 456.466 313.331V317.331ZM460.47 316.273C461.362 315.76 462.171 314.951 462.912 314.015L459.776 311.532C459.181 312.283 458.742 312.653 458.474 312.807L460.47 316.273ZM461.16 314.765L471.733 315.741L472.101 311.757L461.528 310.782L461.16 314.765ZM470.183 312.752C468.705 315.322 467 317.038 465.115 318.053L467.012 321.574C469.698 320.128 471.894 317.801 473.651 314.746L470.183 312.752ZM465.126 318.047C463.259 319.038 460.361 319.633 456.229 319.633V323.633C460.639 323.633 464.297 323.015 467.001 321.58L465.126 318.047ZM456.229 319.633C452.668 319.633 450.094 319.129 448.351 318.279L446.598 321.875C449.11 323.099 452.371 323.633 456.229 323.633V319.633ZM448.363 318.285C446.61 317.416 445.109 316.031 443.874 314.04L440.475 316.148C442.053 318.692 444.085 320.629 446.586 321.869L448.363 318.285ZM443.884 314.055C442.713 312.128 442.092 309.818 442.092 307.052H438.092C438.092 310.438 438.86 313.489 440.466 316.132L443.884 314.055ZM442.092 307.052C442.092 303.142 443.32 300.144 445.676 297.862L442.893 294.989C439.659 298.122 438.092 302.207 438.092 307.052H442.092ZM445.671 297.867C448.019 295.607 451.346 294.365 455.912 294.365V290.365C450.599 290.365 446.174 291.831 442.897 294.985L445.671 297.867ZM455.912 294.365C459.753 294.365 462.555 294.952 464.478 295.957L466.331 292.412C463.612 290.991 460.087 290.365 455.912 290.365V294.365ZM464.478 295.957C466.441 296.983 467.912 298.449 468.935 300.39L472.474 298.526C471.07 295.862 469.009 293.812 466.331 292.412L464.478 295.957ZM468.935 300.39C469.946 302.311 470.523 304.955 470.523 308.449H474.523C474.523 304.561 473.888 301.211 472.474 298.526L468.935 300.39ZM470.523 308.449V309.662H474.523V308.449H470.523ZM463.597 304.318C463.367 302.051 462.721 300.011 461.32 298.637L458.52 301.492C458.946 301.911 459.426 302.842 459.618 304.723L463.597 304.318ZM461.334 298.65C460.001 297.317 458.273 296.72 456.36 296.72V300.72C457.401 300.72 458.046 301.019 458.506 301.479L461.334 298.65ZM456.36 296.72C454.032 296.72 452.076 297.688 450.676 299.547L453.871 301.953C454.51 301.105 455.279 300.72 456.36 300.72V296.72ZM450.689 299.529C449.718 300.789 449.239 302.467 449.045 304.311L453.023 304.73C453.181 303.235 453.528 302.398 453.857 301.971L450.689 299.529ZM451.034 306.521H461.607V302.521H451.034V306.521ZM477.533 292.998V290.998H475.533V292.998H477.533ZM487.553 292.998H489.553V290.998H487.553V292.998ZM487.553 297.085H485.553V302.549L489.08 298.376L487.553 297.085ZM491.903 293.446L491.026 291.649L491.018 291.653L491.903 293.446ZM505.72 297.085L503.951 298.019L505.272 300.519L507.189 298.442L505.72 297.085ZM510.334 293.367L511.182 295.178L511.192 295.174L511.201 295.17L510.334 293.367ZM522.516 295.055L521.059 296.425L521.066 296.433L522.516 295.055ZM525.047 321V323H527.047V321H525.047ZM514.289 321H512.289V323H514.289V321ZM513.551 302.227L511.947 303.422L511.968 303.449L511.989 303.476L513.551 302.227ZM506.643 321V323H508.643V321H506.643ZM495.885 321H493.885V323H495.885V321ZM495.674 303.07L497.579 302.461L497.576 302.452L495.674 303.07ZM494.487 301.383L493.256 302.959L493.272 302.971L493.287 302.983L494.487 301.383ZM488.291 321V323H490.291V321H488.291ZM477.533 321H475.533V323H477.533V321ZM477.533 294.998H487.553V290.998H477.533V294.998ZM485.553 292.998V297.085H489.553V292.998H485.553ZM489.08 298.376C490.406 296.807 491.65 295.802 492.789 295.239L491.018 291.653C489.239 292.532 487.582 293.952 486.025 295.794L489.08 298.376ZM492.781 295.244C493.922 294.687 495.382 294.365 497.229 294.365V290.365C494.929 290.365 492.838 290.765 491.026 291.649L492.781 295.244ZM497.229 294.365C499.256 294.365 500.616 294.729 501.49 295.261L503.568 291.843C501.841 290.793 499.668 290.365 497.229 290.365V294.365ZM501.49 295.261C502.435 295.835 503.266 296.721 503.951 298.019L507.488 296.151C506.521 294.32 505.225 292.85 503.568 291.843L501.49 295.261ZM507.189 298.442C508.797 296.7 510.129 295.672 511.182 295.178L509.486 291.556C507.762 292.364 506.017 293.814 504.25 295.728L507.189 298.442ZM511.201 295.17C512.246 294.667 513.644 294.365 515.476 294.365V290.365C513.229 290.365 511.199 290.732 509.467 291.565L511.201 295.17ZM515.476 294.365C518.061 294.365 519.831 295.12 521.059 296.425L523.972 293.684C521.825 291.403 518.902 290.365 515.476 290.365V294.365ZM521.066 296.433C522.249 297.677 523.047 299.856 523.047 303.413H527.047C527.047 299.376 526.158 295.983 523.965 293.677L521.066 296.433ZM523.047 303.413V321H527.047V303.413H523.047ZM525.047 319H514.289V323H525.047V319ZM516.289 321V305.048H512.289V321H516.289ZM516.289 305.048C516.289 303.585 516.015 302.106 515.113 300.977L511.989 303.476C512.071 303.578 512.289 303.98 512.289 305.048H516.289ZM515.154 301.031C514.11 299.631 512.65 298.776 510.861 298.776V302.776C511.217 302.776 511.55 302.889 511.947 303.422L515.154 301.031ZM510.861 298.776C509.046 298.776 507.453 299.464 506.276 300.856L509.33 303.439C509.699 303.003 510.146 302.776 510.861 302.776V298.776ZM506.276 300.856C505.048 302.307 504.643 304.355 504.643 306.551H508.643C508.643 304.703 509.011 303.816 509.33 303.439L506.276 300.856ZM504.643 306.551V321H508.643V306.551H504.643ZM506.643 319H495.885V323H506.643V319ZM497.885 321V305.575H493.885V321H497.885ZM497.885 305.575C497.885 304.372 497.827 303.238 497.579 302.461L493.769 303.68C493.765 303.669 493.777 303.702 493.793 303.801C493.809 303.895 493.825 304.024 493.839 304.194C493.868 304.536 493.885 304.993 493.885 305.575H497.885ZM497.576 302.452C497.227 301.379 496.597 300.465 495.687 299.783L493.287 302.983C493.503 303.144 493.664 303.356 493.772 303.688L497.576 302.452ZM495.719 299.807C494.783 299.076 493.684 298.724 492.51 298.724V302.724C492.848 302.724 493.067 302.811 493.256 302.959L495.719 299.807ZM492.51 298.724C490.697 298.724 489.127 299.444 487.953 300.827L491.002 303.416C491.41 302.935 491.862 302.724 492.51 302.724V298.724ZM487.953 300.827C486.698 302.305 486.291 304.426 486.291 306.709H490.291C490.291 304.738 490.675 303.801 491.002 303.416L487.953 300.827ZM486.291 306.709V321H490.291V306.709H486.291ZM488.291 319H477.533V323H488.291V319ZM479.533 321V292.998H475.533V321H479.533ZM529.556 313.248L529.368 311.257L527.097 311.47L527.606 313.694L529.556 313.248ZM540.208 312.246L542.097 311.59L541.583 310.108L540.021 310.255L540.208 312.246ZM548.566 314.856L547.374 313.251L547.356 313.264L547.339 313.278L548.566 314.856ZM548.276 311.35L549.202 309.576L549.192 309.572L548.276 311.35ZM543.662 310.242L544.009 308.272L544.006 308.272L543.662 310.242ZM535.884 308.449L535.157 310.312L535.17 310.318L535.184 310.323L535.884 308.449ZM532.219 305.628L530.616 306.825L530.621 306.831L530.626 306.838L532.219 305.628ZM536.78 293.367L537.434 295.257L537.442 295.255L537.45 295.252L536.78 293.367ZM551.73 293.13L551.117 295.034L551.123 295.035L551.73 293.13ZM555.712 295.503L554.286 296.905L554.292 296.911L554.298 296.917L555.712 295.503ZM558.375 299.854L558.571 301.844L561.184 301.587L560.242 299.136L558.375 299.854ZM548.197 300.855L546.279 301.42L546.746 303.008L548.393 302.846L548.197 300.855ZM546.879 298.878L548.01 297.228L547.999 297.221L547.988 297.214L546.879 298.878ZM541.157 298.693L542.382 300.275L542.389 300.269L541.157 298.693ZM541.395 301.805L542.289 300.016L541.395 301.805ZM545.982 302.754L545.745 304.74L545.757 304.741L545.982 302.754ZM557.927 307.526L556.276 308.656L556.281 308.663L556.286 308.67L557.927 307.526ZM557.848 316.649L556.166 315.567L556.162 315.574L556.157 315.581L557.848 316.649ZM553.233 320.314L554.021 322.153L554.029 322.15L553.233 320.314ZM533.722 319.471L532.603 321.129L532.609 321.133L533.722 319.471ZM529.743 315.239L540.395 314.237L540.021 310.255L529.368 311.257L529.743 315.239ZM538.319 312.902C538.844 314.415 539.663 315.744 540.919 316.609L543.188 313.315C542.862 313.09 542.451 312.608 542.097 311.59L538.319 312.902ZM540.919 316.609C542.147 317.455 543.641 317.779 545.218 317.779V313.779C544.158 313.779 543.542 313.559 543.188 313.315L540.919 316.609ZM545.218 317.779C546.915 317.779 548.527 317.42 549.794 316.435L547.339 313.278C547.023 313.523 546.404 313.779 545.218 313.779V317.779ZM549.759 316.462C550.813 315.679 551.489 314.542 551.489 313.143H547.489C547.489 313.163 547.487 313.167 547.489 313.16C547.491 313.152 547.494 313.143 547.498 313.137C547.506 313.122 547.488 313.166 547.374 313.251L549.759 316.462ZM551.489 313.143C551.489 311.475 550.527 310.268 549.201 309.576L547.351 313.123C547.537 313.22 547.556 313.274 547.529 313.235C547.516 313.216 547.503 313.189 547.495 313.161C547.487 313.134 547.489 313.125 547.489 313.143H551.489ZM549.192 309.572C548.665 309.3 547.921 309.088 547.154 308.904C546.329 308.706 545.276 308.496 544.009 308.272L543.315 312.212C544.544 312.428 545.508 312.622 546.221 312.793C546.577 312.879 546.854 312.955 547.06 313.02C547.281 313.089 547.362 313.128 547.36 313.128L549.192 309.572ZM544.006 308.272C540.278 307.621 537.851 307.049 536.584 306.576L535.184 310.323C536.835 310.939 539.593 311.562 543.318 312.212L544.006 308.272ZM536.611 306.586C535.537 306.167 534.606 305.464 533.811 304.418L530.626 306.838C531.835 308.428 533.348 309.607 535.157 310.312L536.611 306.586ZM533.821 304.431C533.102 303.468 532.742 302.387 532.742 301.119H528.742C528.742 303.226 529.367 305.151 530.616 306.825L533.821 304.431ZM532.742 301.119C532.742 299.691 533.146 298.551 533.91 297.599L530.791 295.095C529.411 296.814 528.742 298.856 528.742 301.119H532.742ZM533.91 297.599C534.711 296.601 535.85 295.805 537.434 295.257L536.127 291.477C533.948 292.23 532.135 293.42 530.791 295.095L533.91 297.599ZM537.45 295.252C539.027 294.692 541.294 294.365 544.348 294.365V290.365C541.073 290.365 538.295 290.707 536.111 291.483L537.45 295.252ZM544.348 294.365C547.645 294.365 549.846 294.624 551.117 295.033L552.344 291.226C550.451 290.616 547.73 290.365 544.348 290.365V294.365ZM551.123 295.035C552.45 295.458 553.485 296.091 554.286 296.905L557.138 294.1C555.83 292.771 554.21 291.821 552.338 291.224L551.123 295.035ZM554.298 296.917C555.123 297.743 555.878 298.931 556.508 300.571L560.242 299.136C559.466 297.119 558.445 295.408 557.126 294.089L554.298 296.917ZM558.179 297.863L548.001 298.865L548.393 302.846L558.571 301.844L558.179 297.863ZM550.116 300.291C549.756 299.067 549.093 297.971 548.01 297.228L545.748 300.527C545.896 300.629 546.111 300.851 546.279 301.42L550.116 300.291ZM547.988 297.214C546.761 296.396 545.338 296.034 543.82 296.034V300.034C544.693 300.034 545.309 300.235 545.77 300.542L547.988 297.214ZM543.82 296.034C542.444 296.034 541.012 296.269 539.926 297.117L542.389 300.269C542.427 300.239 542.771 300.034 543.82 300.034V296.034ZM539.933 297.112C538.966 297.861 538.34 298.935 538.34 300.249H542.34C542.34 300.244 542.34 300.254 542.336 300.273C542.331 300.293 542.323 300.313 542.315 300.329C542.306 300.345 542.302 300.348 542.309 300.34C542.317 300.331 542.338 300.308 542.382 300.275L539.933 297.112ZM538.34 300.249C538.34 300.953 538.527 301.653 538.948 302.274C539.359 302.881 539.919 303.303 540.5 303.594L542.289 300.016C542.167 299.955 542.199 299.942 542.259 300.03C542.288 300.073 542.311 300.122 542.326 300.171C542.332 300.194 542.336 300.214 542.338 300.228C542.34 300.242 542.34 300.249 542.34 300.249H538.34ZM540.5 303.594C541.093 303.89 541.861 304.098 542.664 304.264C543.504 304.438 544.537 304.596 545.745 304.74L546.22 300.768C545.073 300.631 544.163 300.49 543.474 300.347C542.747 300.197 542.399 300.071 542.289 300.016L540.5 303.594ZM545.757 304.741C549.276 305.14 551.705 305.678 553.18 306.289L554.711 302.594C552.706 301.763 549.826 301.177 546.208 300.767L545.757 304.741ZM553.18 306.289C554.622 306.886 555.615 307.69 556.276 308.656L559.577 306.397C558.41 304.691 556.749 303.438 554.711 302.594L553.18 306.289ZM556.286 308.67C556.988 309.677 557.324 310.747 557.324 311.93H561.324C561.324 309.913 560.728 308.047 559.567 306.382L556.286 308.67ZM557.324 311.93C557.324 313.116 556.969 314.319 556.166 315.567L559.529 317.732C560.695 315.921 561.324 313.977 561.324 311.93H557.324ZM556.157 315.581C555.457 316.689 554.279 317.682 552.438 318.479L554.029 322.15C556.407 321.119 558.305 319.668 559.538 317.718L556.157 315.581ZM552.446 318.476C550.706 319.222 548.156 319.659 544.664 319.659V323.659C548.414 323.659 551.577 323.2 554.021 322.153L552.446 318.476ZM544.664 319.659C539.63 319.659 536.495 318.921 534.834 317.809L532.609 321.133C535.307 322.939 539.468 323.659 544.664 323.659V319.659ZM534.84 317.813C533.125 316.655 532.015 315.028 531.505 312.802L527.606 313.694C528.327 316.847 529.994 319.368 532.603 321.129L534.84 317.813ZM564.492 282.346V280.346H562.492V282.346H564.492ZM575.962 282.346H577.962V280.346H575.962V282.346ZM575.962 291.152L577.946 291.401L577.962 291.277V291.152H575.962ZM573.747 308.845V310.845H575.512L575.732 309.093L573.747 308.845ZM566.654 308.845L564.669 309.087L564.884 310.845H566.654V308.845ZM564.492 291.152H562.492V291.274L562.507 291.395L564.492 291.152ZM564.888 311.534V309.534H562.888V311.534H564.888ZM575.593 311.534H577.593V309.534H575.593V311.534ZM575.593 321V323H577.593V321H575.593ZM564.888 321H562.888V323H564.888V321ZM564.492 284.346H575.962V280.346H564.492V284.346ZM573.962 282.346V291.152H577.962V282.346H573.962ZM573.977 290.904L571.763 308.596L575.732 309.093L577.946 291.401L573.977 290.904ZM573.747 306.845H566.654V310.845H573.747V306.845ZM568.64 308.602L566.477 290.91L562.507 291.395L564.669 309.087L568.64 308.602ZM566.492 291.152V282.346H562.492V291.152H566.492ZM564.888 313.534H575.593V309.534H564.888V313.534ZM573.593 311.534V321H577.593V311.534H573.593ZM575.593 319H564.888V323H575.593V319ZM566.888 321V311.534H562.888V321H566.888Z" fill="black"/>
</g>
<path d="M27.5801 309.235C26.7986 310.016 26.7979 311.282 27.5785 312.063L40.2992 324.799C41.0798 325.58 42.3461 325.581 43.1276 324.8C43.9091 324.02 43.9098 322.753 43.1292 321.972L31.822 310.652L43.1421 299.344C43.9236 298.564 43.9243 297.297 43.1437 296.516C42.3631 295.734 41.0968 295.734 40.3153 296.514L27.5801 309.235ZM88.9947 308.684L28.9947 308.65L28.9924 312.65L88.9924 312.684L88.9947 308.684Z" fill="#F3E858"/>
<defs>
<filter id="filter0_d_31_22" x="99.2959" y="282.346" width="480.666" height="53.3066" filterUnits="userSpaceOnUse" color-interpolation-filters="sRGB">
<feFlood flood-opacity="0" result="BackgroundImageFix"/>
<feColorMatrix in="SourceAlpha" type="matrix" values="0 0 0 0 0 0 0 0 0 0 0 0 0 0 0 0 0 0 127 0" result="hardAlpha"/>
<feOffset dx="4" dy="4"/>
<feComposite in2="hardAlpha" operator="out"/>
<feColorMatrix type="matrix" values="0 0 0 0 0 0 0 0 0 0 0 0 0 0 0 0 0 0 0.25 0"/>
<feBlend mode="normal" in2="BackgroundImageFix" result="effect1_dropShadow_31_22"/>
<feBlend mode="normal" in="SourceGraphic" in2="effect1_dropShadow_31_22" result="shape"/>
</filter>
</defs>
</svg>
