<svg width="576" height="145" viewBox="0 0 576 145" fill="none" xmlns="http://www.w3.org/2000/svg">
<path d="M79.7734 85.0547L96.6094 84C96.974 86.7344 97.7161 88.8177 98.8359 90.25C100.659 92.5677 103.263 93.7266 106.648 93.7266C109.174 93.7266 111.115 93.1406 112.469 91.9688C113.849 90.7708 114.539 89.3906 114.539 87.8281C114.539 86.3438 113.888 85.0156 112.586 83.8438C111.284 82.6719 108.263 81.5651 103.523 80.5234C95.763 78.7786 90.2292 76.4609 86.9219 73.5703C83.5885 70.6797 81.9219 66.9948 81.9219 62.5156C81.9219 59.5729 82.7682 56.7995 84.4609 54.1953C86.1797 51.5651 88.7448 49.5078 92.1562 48.0234C95.5938 46.513 100.294 45.7578 106.258 45.7578C113.576 45.7578 119.148 47.125 122.977 49.8594C126.831 52.5677 129.122 56.8906 129.852 62.8281L113.172 63.8047C112.729 61.2266 111.792 59.3516 110.359 58.1797C108.953 57.0078 107 56.4219 104.5 56.4219C102.443 56.4219 100.893 56.8646 99.8516 57.75C98.8099 58.6094 98.2891 59.6641 98.2891 60.9141C98.2891 61.8255 98.7188 62.6458 99.5781 63.375C100.411 64.1302 102.391 64.8333 105.516 65.4844C113.25 67.151 118.784 68.8438 122.117 70.5625C125.477 72.2552 127.911 74.3646 129.422 76.8906C130.958 79.4167 131.727 82.2422 131.727 85.3672C131.727 89.0391 130.711 92.4245 128.68 95.5234C126.648 98.6224 123.81 100.979 120.164 102.594C116.518 104.182 111.922 104.977 106.375 104.977C96.6354 104.977 89.8906 103.102 86.1406 99.3516C82.3906 95.6016 80.2682 90.8359 79.7734 85.0547ZM148.633 46.7344H196.055V58.9609H166.367V68.0625H193.906V79.7422H166.367V91.0312H196.914V104H148.633V46.7344ZM210.461 46.7344H264.25V60.875H246.203V104H228.508V60.875H210.461V46.7344ZM280.297 46.7344H297.992V89.8984H325.609V104H280.297V46.7344ZM342.359 46.7344H360.094V104H342.359V46.7344ZM377.742 85.0547L394.578 84C394.943 86.7344 395.685 88.8177 396.805 90.25C398.628 92.5677 401.232 93.7266 404.617 93.7266C407.143 93.7266 409.083 93.1406 410.438 91.9688C411.818 90.7708 412.508 89.3906 412.508 87.8281C412.508 86.3438 411.857 85.0156 410.555 83.8438C409.253 82.6719 406.232 81.5651 401.492 80.5234C393.732 78.7786 388.198 76.4609 384.891 73.5703C381.557 70.6797 379.891 66.9948 379.891 62.5156C379.891 59.5729 380.737 56.7995 382.43 54.1953C384.148 51.5651 386.714 49.5078 390.125 48.0234C393.562 46.513 398.263 45.7578 404.227 45.7578C411.544 45.7578 417.117 47.125 420.945 49.8594C424.799 52.5677 427.091 56.8906 427.82 62.8281L411.141 63.8047C410.698 61.2266 409.76 59.3516 408.328 58.1797C406.922 57.0078 404.969 56.4219 402.469 56.4219C400.411 56.4219 398.862 56.8646 397.82 57.75C396.779 58.6094 396.258 59.6641 396.258 60.9141C396.258 61.8255 396.688 62.6458 397.547 63.375C398.38 64.1302 400.359 64.8333 403.484 65.4844C411.219 67.151 416.753 68.8438 420.086 70.5625C423.445 72.2552 425.88 74.3646 427.391 76.8906C428.927 79.4167 429.695 82.2422 429.695 85.3672C429.695 89.0391 428.68 92.4245 426.648 95.5234C424.617 98.6224 421.779 100.979 418.133 102.594C414.487 104.182 409.891 104.977 404.344 104.977C394.604 104.977 387.859 103.102 384.109 99.3516C380.359 95.6016 378.237 90.8359 377.742 85.0547ZM442.617 46.7344H496.406V60.875H478.359V104H460.664V60.875H442.617V46.7344Z" fill="#F3E858"/>
<path d="M79.7734 85.0547L79.5859 82.0606L76.5226 82.2525L76.7844 85.3105L79.7734 85.0547ZM96.6094 84L99.5831 83.6035L99.2134 80.831L96.4218 81.0059L96.6094 84ZM98.8359 90.25L96.4725 92.0978L96.4779 92.1046L98.8359 90.25ZM112.469 91.9688L114.432 94.2373L114.435 94.2344L112.469 91.9688ZM103.523 80.5234L102.865 83.4504L102.872 83.452L102.879 83.4535L103.523 80.5234ZM86.9219 73.5703L88.8961 71.3115L88.8873 71.3038L86.9219 73.5703ZM84.4609 54.1953L81.9496 52.5542L81.9456 52.5603L84.4609 54.1953ZM92.1562 48.0234L93.3532 50.7743L93.3631 50.77L92.1562 48.0234ZM122.977 49.8594L121.233 52.3006L121.242 52.3073L121.252 52.314L122.977 49.8594ZM129.852 62.8281L130.027 65.823L133.219 65.6361L132.829 62.4625L129.852 62.8281ZM113.172 63.8047L110.215 64.3124L110.669 66.9564L113.347 66.7996L113.172 63.8047ZM110.359 58.1797L108.439 60.4844L108.449 60.493L108.46 60.5016L110.359 58.1797ZM99.8516 57.75L101.761 60.0641L101.778 60.0501L101.795 60.0358L99.8516 57.75ZM99.5781 63.375L101.593 61.152L101.556 61.1192L101.519 61.0875L99.5781 63.375ZM105.516 65.4844L106.148 62.5517L106.138 62.5495L106.127 62.5474L105.516 65.4844ZM122.117 70.5625L120.742 73.2289L120.755 73.2353L120.767 73.2416L122.117 70.5625ZM129.422 76.8906L126.847 78.4302L126.853 78.4399L126.859 78.4496L129.422 76.8906ZM128.68 95.5234L126.171 93.8789L128.68 95.5234ZM120.164 102.594L121.362 105.344L121.371 105.34L121.379 105.337L120.164 102.594ZM79.961 88.0488L96.7969 86.9941L96.4218 81.0059L79.5859 82.0606L79.961 88.0488ZM93.6357 84.3965C94.0372 87.4075 94.8959 90.0812 96.4725 92.0978L101.199 88.4022C100.536 87.5542 99.9108 86.0612 99.5831 83.6035L93.6357 84.3965ZM96.4779 92.1046C98.9585 95.2585 102.497 96.7266 106.648 96.7266V90.7266C104.029 90.7266 102.359 89.8769 101.194 88.3954L96.4779 92.1046ZM106.648 96.7266C109.602 96.7266 112.345 96.0428 114.432 94.2373L110.506 89.7002C109.884 90.2384 108.747 90.7266 106.648 90.7266V96.7266ZM114.435 94.2344C116.349 92.5734 117.539 90.4105 117.539 87.8281H111.539C111.539 88.3707 111.349 88.9682 110.502 89.7031L114.435 94.2344ZM117.539 87.8281C117.539 85.3389 116.402 83.2425 114.593 81.6139L110.579 86.0736C111.374 86.7888 111.539 87.3486 111.539 87.8281H117.539ZM114.593 81.6139C113.51 80.6397 111.996 79.9115 110.376 79.3179C108.692 78.7011 106.61 78.1302 104.167 77.5934L102.879 83.4535C105.177 83.9584 106.974 84.4616 108.312 84.9517C109.712 85.4648 110.359 85.8759 110.579 86.0736L114.593 81.6139ZM104.182 77.5965C96.5723 75.8857 91.633 73.7035 88.8961 71.3115L84.9476 75.8291C88.8254 79.2184 94.9538 81.6716 102.865 83.4504L104.182 77.5965ZM88.8873 71.3038C86.2225 68.9929 84.9219 66.1402 84.9219 62.5156H78.9219C78.9219 67.8493 80.9546 72.3665 84.9564 75.8368L88.8873 71.3038ZM84.9219 62.5156C84.9219 60.1862 85.5814 57.9762 86.9763 55.8303L81.9456 52.5603C79.955 55.6228 78.9219 58.9596 78.9219 62.5156H84.9219ZM86.9723 55.8364C88.3155 53.7809 90.3782 52.0688 93.3532 50.7743L90.9593 45.2726C87.1114 46.9468 84.0439 49.3493 81.9496 52.5542L86.9723 55.8364ZM93.3631 50.77C96.262 49.4962 100.493 48.7578 106.258 48.7578V42.7578C100.096 42.7578 94.9255 43.5298 90.9494 45.2769L93.3631 50.77ZM106.258 48.7578C113.274 48.7578 118.125 50.0809 121.233 52.3006L124.72 47.4182C120.172 44.1691 113.877 42.7578 106.258 42.7578V48.7578ZM121.252 52.314C124.234 54.4096 126.218 57.8557 126.874 63.1938L132.829 62.4625C132.026 55.9256 129.427 50.7258 124.701 47.4048L121.252 52.314ZM129.676 59.8333L112.997 60.8098L113.347 66.7996L130.027 65.823L129.676 59.8333ZM116.129 63.297C115.614 60.2983 114.444 57.6453 112.259 55.8578L108.46 60.5016C109.14 61.0579 109.845 62.1548 110.215 64.3124L116.129 63.297ZM112.28 55.875C110.166 54.1134 107.446 53.4219 104.5 53.4219V59.4219C106.554 59.4219 107.74 59.9022 108.439 60.4844L112.28 55.875ZM104.5 53.4219C102.077 53.4219 99.7084 53.9343 97.9086 55.4642L101.795 60.0358C102.078 59.7948 102.808 59.4219 104.5 59.4219V53.4219ZM97.9424 55.4359C96.2732 56.813 95.2891 58.6896 95.2891 60.9141H101.289C101.289 60.6385 101.347 60.4058 101.761 60.0641L97.9424 55.4359ZM95.2891 60.9141C95.2891 62.9107 96.2791 64.5102 97.6372 65.6625L101.519 61.0875C101.321 60.9198 101.27 60.8238 101.269 60.8209C101.268 60.82 101.275 60.8334 101.281 60.8581C101.288 60.8831 101.289 60.9037 101.289 60.9141H95.2891ZM97.5636 65.598C98.4288 66.3821 99.5876 66.9064 100.683 67.2957C101.849 67.7097 103.269 68.0807 104.904 68.4213L106.127 62.5474C104.637 62.237 103.506 61.931 102.692 61.6418C101.808 61.3279 101.561 61.1231 101.593 61.152L97.5636 65.598ZM104.884 68.4171C112.58 70.0754 117.783 71.7031 120.742 73.2289L123.492 67.8961C119.785 65.9844 113.92 64.2266 106.148 62.5517L104.884 68.4171ZM120.767 73.2416C123.758 74.7488 125.7 76.5114 126.847 78.4302L131.997 75.351C130.123 72.2178 127.195 69.7617 123.467 67.8834L120.767 73.2416ZM126.859 78.4496C128.093 80.4787 128.727 82.7594 128.727 85.3672H134.727C134.727 81.725 133.824 78.3546 131.985 75.3316L126.859 78.4496ZM128.727 85.3672C128.727 88.4491 127.885 91.2638 126.171 93.8789L131.189 97.168C133.537 93.5851 134.727 89.629 134.727 85.3672H128.727ZM126.171 93.8789C124.48 96.4577 122.109 98.4514 118.949 99.8507L121.379 105.337C125.511 103.507 128.817 100.787 131.189 97.168L126.171 93.8789ZM118.966 99.8435C115.816 101.216 111.661 101.977 106.375 101.977V107.977C112.182 107.977 117.221 107.149 121.362 105.344L118.966 99.8435ZM106.375 101.977C96.829 101.977 91.1327 100.101 88.2619 97.2302L84.0193 101.473C88.6486 106.102 96.4419 107.977 106.375 107.977V101.977ZM88.2619 97.2302C85.0603 94.0286 83.2031 89.9466 82.7625 84.7989L76.7844 85.3105C77.3334 91.7253 79.7209 97.1745 84.0193 101.473L88.2619 97.2302ZM148.633 46.7344V43.7344H145.633V46.7344H148.633ZM196.055 46.7344H199.055V43.7344H196.055V46.7344ZM196.055 58.9609V61.9609H199.055V58.9609H196.055ZM166.367 58.9609V55.9609H163.367V58.9609H166.367ZM166.367 68.0625H163.367V71.0625H166.367V68.0625ZM193.906 68.0625H196.906V65.0625H193.906V68.0625ZM193.906 79.7422V82.7422H196.906V79.7422H193.906ZM166.367 79.7422V76.7422H163.367V79.7422H166.367ZM166.367 91.0312H163.367V94.0312H166.367V91.0312ZM196.914 91.0312H199.914V88.0312H196.914V91.0312ZM196.914 104V107H199.914V104H196.914ZM148.633 104H145.633V107H148.633V104ZM148.633 49.7344H196.055V43.7344H148.633V49.7344ZM193.055 46.7344V58.9609H199.055V46.7344H193.055ZM196.055 55.9609H166.367V61.9609H196.055V55.9609ZM163.367 58.9609V68.0625H169.367V58.9609H163.367ZM166.367 71.0625H193.906V65.0625H166.367V71.0625ZM190.906 68.0625V79.7422H196.906V68.0625H190.906ZM193.906 76.7422H166.367V82.7422H193.906V76.7422ZM163.367 79.7422V91.0312H169.367V79.7422H163.367ZM166.367 94.0312H196.914V88.0312H166.367V94.0312ZM193.914 91.0312V104H199.914V91.0312H193.914ZM196.914 101H148.633V107H196.914V101ZM151.633 104V46.7344H145.633V104H151.633ZM210.461 46.7344V43.7344H207.461V46.7344H210.461ZM264.25 46.7344H267.25V43.7344H264.25V46.7344ZM264.25 60.875V63.875H267.25V60.875H264.25ZM246.203 60.875V57.875H243.203V60.875H246.203ZM246.203 104V107H249.203V104H246.203ZM228.508 104H225.508V107H228.508V104ZM228.508 60.875H231.508V57.875H228.508V60.875ZM210.461 60.875H207.461V63.875H210.461V60.875ZM210.461 49.7344H264.25V43.7344H210.461V49.7344ZM261.25 46.7344V60.875H267.25V46.7344H261.25ZM264.25 57.875H246.203V63.875H264.25V57.875ZM243.203 60.875V104H249.203V60.875H243.203ZM246.203 101H228.508V107H246.203V101ZM231.508 104V60.875H225.508V104H231.508ZM228.508 57.875H210.461V63.875H228.508V57.875ZM213.461 60.875V46.7344H207.461V60.875H213.461ZM280.297 46.7344V43.7344H277.297V46.7344H280.297ZM297.992 46.7344H300.992V43.7344H297.992V46.7344ZM297.992 89.8984H294.992V92.8984H297.992V89.8984ZM325.609 89.8984H328.609V86.8984H325.609V89.8984ZM325.609 104V107H328.609V104H325.609ZM280.297 104H277.297V107H280.297V104ZM280.297 49.7344H297.992V43.7344H280.297V49.7344ZM294.992 46.7344V89.8984H300.992V46.7344H294.992ZM297.992 92.8984H325.609V86.8984H297.992V92.8984ZM322.609 89.8984V104H328.609V89.8984H322.609ZM325.609 101H280.297V107H325.609V101ZM283.297 104V46.7344H277.297V104H283.297ZM342.359 46.7344V43.7344H339.359V46.7344H342.359ZM360.094 46.7344H363.094V43.7344H360.094V46.7344ZM360.094 104V107H363.094V104H360.094ZM342.359 104H339.359V107H342.359V104ZM342.359 49.7344H360.094V43.7344H342.359V49.7344ZM357.094 46.7344V104H363.094V46.7344H357.094ZM360.094 101H342.359V107H360.094V101ZM345.359 104V46.7344H339.359V104H345.359ZM377.742 85.0547L377.555 82.0606L374.491 82.2525L374.753 85.3105L377.742 85.0547ZM394.578 84L397.552 83.6035L397.182 80.831L394.391 81.0059L394.578 84ZM396.805 90.25L394.441 92.0978L394.447 92.1046L396.805 90.25ZM410.438 91.9688L412.401 94.2373L412.404 94.2344L410.438 91.9688ZM401.492 80.5234L400.834 83.4504L400.841 83.452L400.848 83.4535L401.492 80.5234ZM384.891 73.5703L386.865 71.3115L386.856 71.3038L384.891 73.5703ZM382.43 54.1953L379.918 52.5542L379.914 52.5603L382.43 54.1953ZM390.125 48.0234L391.322 50.7743L391.332 50.77L390.125 48.0234ZM420.945 49.8594L419.202 52.3006L419.211 52.3073L419.22 52.314L420.945 49.8594ZM427.82 62.8281L427.996 65.823L431.188 65.6361L430.798 62.4625L427.82 62.8281ZM411.141 63.8047L408.184 64.3124L408.638 66.9564L411.316 66.7996L411.141 63.8047ZM408.328 58.1797L406.408 60.4844L406.418 60.493L406.428 60.5016L408.328 58.1797ZM397.82 57.75L399.729 60.0641L399.746 60.0501L399.763 60.0358L397.82 57.75ZM397.547 63.375L399.561 61.152L399.525 61.1192L399.488 61.0875L397.547 63.375ZM403.484 65.4844L404.116 62.5517L404.106 62.5495L404.096 62.5474L403.484 65.4844ZM420.086 70.5625L418.711 73.2289L418.724 73.2353L418.736 73.2416L420.086 70.5625ZM427.391 76.8906L424.816 78.4302L424.822 78.4399L424.828 78.4496L427.391 76.8906ZM426.648 95.5234L424.139 93.8789L426.648 95.5234ZM418.133 102.594L419.331 105.344L419.339 105.34L419.348 105.337L418.133 102.594ZM377.93 88.0488L394.766 86.9941L394.391 81.0059L377.555 82.0606L377.93 88.0488ZM391.604 84.3965C392.006 87.4075 392.865 90.0812 394.441 92.0978L399.168 88.4022C398.505 87.5542 397.88 86.0612 397.552 83.6035L391.604 84.3965ZM394.447 92.1046C396.927 95.2585 400.466 96.7266 404.617 96.7266V90.7266C401.998 90.7266 400.328 89.8769 399.163 88.3954L394.447 92.1046ZM404.617 96.7266C407.571 96.7266 410.314 96.0428 412.401 94.2373L408.474 89.7002C407.852 90.2384 406.716 90.7266 404.617 90.7266V96.7266ZM412.404 94.2344C414.318 92.5734 415.508 90.4105 415.508 87.8281H409.508C409.508 88.3707 409.318 88.9682 408.471 89.7031L412.404 94.2344ZM415.508 87.8281C415.508 85.3389 414.371 83.2425 412.562 81.6139L408.548 86.0736C409.342 86.7888 409.508 87.3486 409.508 87.8281H415.508ZM412.562 81.6139C411.479 80.6397 409.965 79.9115 408.345 79.3179C406.661 78.7011 404.579 78.1302 402.136 77.5934L400.848 83.4535C403.145 83.9584 404.943 84.4616 406.28 84.9517C407.681 85.4648 408.328 85.8759 408.548 86.0736L412.562 81.6139ZM402.15 77.5965C394.541 75.8857 389.602 73.7035 386.865 71.3115L382.916 75.8291C386.794 79.2184 392.923 81.6716 400.834 83.4504L402.15 77.5965ZM386.856 71.3038C384.191 68.9929 382.891 66.1402 382.891 62.5156H376.891C376.891 67.8493 378.923 72.3665 382.925 75.8368L386.856 71.3038ZM382.891 62.5156C382.891 60.1862 383.55 57.9762 384.945 55.8303L379.914 52.5603C377.924 55.6228 376.891 58.9596 376.891 62.5156H382.891ZM384.941 55.8364C386.284 53.7809 388.347 52.0688 391.322 50.7743L388.928 45.2726C385.08 46.9468 382.013 49.3493 379.918 52.5542L384.941 55.8364ZM391.332 50.77C394.231 49.4962 398.461 48.7578 404.227 48.7578V42.7578C398.065 42.7578 392.894 43.5298 388.918 45.2769L391.332 50.77ZM404.227 48.7578C411.243 48.7578 416.094 50.0809 419.202 52.3006L422.689 47.4182C418.14 44.1691 411.846 42.7578 404.227 42.7578V48.7578ZM419.22 52.314C422.203 54.4096 424.187 57.8557 424.843 63.1938L430.798 62.4625C429.995 55.9256 427.396 50.7258 422.67 47.4048L419.22 52.314ZM427.645 59.8333L410.965 60.8098L411.316 66.7996L427.996 65.823L427.645 59.8333ZM414.097 63.297C413.582 60.2983 412.413 57.6453 410.228 55.8578L406.428 60.5016C407.108 61.0579 407.813 62.1548 408.184 64.3124L414.097 63.297ZM410.249 55.875C408.135 54.1134 405.414 53.4219 402.469 53.4219V59.4219C404.523 59.4219 405.709 59.9022 406.408 60.4844L410.249 55.875ZM402.469 53.4219C400.046 53.4219 397.677 53.9343 395.877 55.4642L399.763 60.0358C400.047 59.7948 400.777 59.4219 402.469 59.4219V53.4219ZM395.911 55.4359C394.242 56.813 393.258 58.6896 393.258 60.9141H399.258C399.258 60.6385 399.315 60.4058 399.729 60.0641L395.911 55.4359ZM393.258 60.9141C393.258 62.9107 394.248 64.5102 395.606 65.6625L399.488 61.0875C399.29 60.9198 399.239 60.8238 399.238 60.8209C399.237 60.82 399.244 60.8334 399.25 60.8581C399.256 60.8831 399.258 60.9037 399.258 60.9141H393.258ZM395.532 65.598C396.398 66.3821 397.556 66.9064 398.652 67.2957C399.817 67.7097 401.238 68.0807 402.873 68.4213L404.096 62.5474C402.606 62.237 401.474 61.931 400.661 61.6418C399.777 61.3279 399.53 61.1231 399.561 61.152L395.532 65.598ZM402.852 68.4171C410.548 70.0754 415.752 71.7031 418.711 73.2289L421.461 67.8961C417.753 65.9844 411.889 64.2266 404.116 62.5517L402.852 68.4171ZM418.736 73.2416C421.727 74.7488 423.668 76.5114 424.816 78.4302L429.965 75.351C428.092 72.2178 425.164 69.7617 421.436 67.8834L418.736 73.2416ZM424.828 78.4496C426.062 80.4787 426.695 82.7594 426.695 85.3672H432.695C432.695 81.725 431.792 78.3546 429.954 75.3316L424.828 78.4496ZM426.695 85.3672C426.695 88.4491 425.853 91.2638 424.139 93.8789L429.157 97.168C431.506 93.5851 432.695 89.629 432.695 85.3672H426.695ZM424.139 93.8789C422.449 96.4577 420.078 98.4514 416.918 99.8507L419.348 105.337C423.48 103.507 426.785 100.787 429.157 97.168L424.139 93.8789ZM416.934 99.8435C413.785 101.216 409.63 101.977 404.344 101.977V107.977C410.151 107.977 415.189 107.149 419.331 105.344L416.934 99.8435ZM404.344 101.977C394.798 101.977 389.101 100.101 386.231 97.2302L381.988 101.473C386.617 106.102 394.411 107.977 404.344 107.977V101.977ZM386.231 97.2302C383.029 94.0286 381.172 89.9466 380.731 84.7989L374.753 85.3105C375.302 91.7253 377.69 97.1745 381.988 101.473L386.231 97.2302ZM442.617 46.7344V43.7344H439.617V46.7344H442.617ZM496.406 46.7344H499.406V43.7344H496.406V46.7344ZM496.406 60.875V63.875H499.406V60.875H496.406ZM478.359 60.875V57.875H475.359V60.875H478.359ZM478.359 104V107H481.359V104H478.359ZM460.664 104H457.664V107H460.664V104ZM460.664 60.875H463.664V57.875H460.664V60.875ZM442.617 60.875H439.617V63.875H442.617V60.875ZM442.617 49.7344H496.406V43.7344H442.617V49.7344ZM493.406 46.7344V60.875H499.406V46.7344H493.406ZM496.406 57.875H478.359V63.875H496.406V57.875ZM475.359 60.875V104H481.359V60.875H475.359ZM478.359 101H460.664V107H478.359V101ZM463.664 104V60.875H457.664V104H463.664ZM460.664 57.875H442.617V63.875H460.664V57.875ZM445.617 60.875V46.7344H439.617V60.875H445.617Z" fill="black"/>
</svg>
