<svg width="120" height="120" viewBox="0 0 500 500" fill="none" xmlns="http://www.w3.org/2000/svg">
<path d="M74.8126 63.9981L175.532 139.114L179 173C179 173 132.904 147.375 109.463 124.237C99.1227 114.03 91.9528 108.975 84.9632 96.2367C78.6136 84.6651 74.8126 63.9981 74.8126 63.9981Z" fill="#ED8F37"/>
<path d="M74.8126 63.9981L175.532 139.114L179 173C179 173 132.904 147.375 109.463 124.237C99.1227 114.03 91.9528 108.975 84.9632 96.2367C78.6136 84.6651 74.8126 63.9981 74.8126 63.9981Z" fill="#ED8F37"/>
<path d="M74.8126 63.9981L175.532 139.114L179 173C179 173 132.904 147.375 109.463 124.237C99.1227 114.03 91.9528 108.975 84.9632 96.2367C78.6136 84.6651 74.8126 63.9981 74.8126 63.9981Z" stroke="black" stroke-width="3"/>
<path d="M76.612 61.5821L126.945 99.1757L177.278 136.769L212.5 136.769C212.5 136.769 173.07 93.5524 144.219 77.6631C131.492 70.6538 124.606 65.2183 110.406 62.1414C97.5063 59.3463 76.612 61.5821 76.612 61.5821Z" fill="#ED8F37"/>
<path d="M76.612 61.5821L126.945 99.1757L177.278 136.769L212.5 136.769C212.5 136.769 173.07 93.5524 144.219 77.6631C131.492 70.6538 124.606 65.2183 110.406 62.1414C97.5063 59.3463 76.612 61.5821 76.612 61.5821Z" fill="#ED8F37"/>
<path d="M76.612 61.5821C76.612 61.5821 97.5063 59.3463 110.406 62.1414C124.606 65.2183 131.492 70.6538 144.219 77.6631C173.07 93.5524 212.5 136.769 212.5 136.769L177.278 136.769L126.945 99.1757L76.612 61.5821Z" stroke="black" stroke-width="3"/>
<path d="M107.528 76.8716C108.058 77.3612 108.388 78.3299 108.083 79.8368C107.784 81.3128 106.904 83.0503 105.445 84.6287C103.987 86.2072 102.324 87.2216 100.876 87.6358C99.3978 88.0586 98.4061 87.806 97.8764 87.3164C97.3466 86.8269 97.0167 85.8582 97.3217 84.3513C97.6206 82.8753 98.5009 81.1378 99.9596 79.5594C101.418 77.9809 103.081 76.9664 104.529 76.5523C106.007 76.1295 106.999 76.3821 107.528 76.8716Z" fill="white" stroke="black" stroke-width="3"/>
<path d="M214.718 138.5L234.081 162.749L213.289 164.964L178.468 138.5H214.718Z" fill="#DC5E38" stroke="black" stroke-width="2"/>
<path d="M180.288 174.147L176.255 138.078L212.198 165.632L212.198 193.778L180.288 174.147Z" fill="#DC5E38" stroke="black" stroke-width="2"/>
</svg>
